# xmcd
#
# Track frame offsets: 
#        150
#        12536
#        27685
#        40344
#        52351
#        65445
#        79198
#        93283
#        103722
#        116053
#        130645
#        144043
#        160071
#
# Disc length: 2317 seconds
#
# Revision: 0
# Processed by: cddbd v1.5.2PL0 Copyright (c) Steve Scherf et al.
# Submitted via: ExactAudioCopyFreeDBPlugin 1.0
#
DISCID=b0090b0d
DTITLE=Shady Grove - New Appalachian Grass
DYEAR=1900
DGENRE=Bluegrass
TTITLE0=Shady Grove (Pretty Little Miss)
TTITLE1=Life's Railway To Heaven
TTITLE2=Little Cabin Home On The Hill
TTITLE3=I'll Go Stepping Too
TTITLE4=Two Different Worlds
TTITLE5=Blue Kentucky Girl
TTITLE6=Coat Of Many Colors
TTITLE7=When You And I Were Young Maggie
TTITLE8=Highway 40 Blues
TTITLE9=Someday We'll Meet  Again Sweetheart
TTITLE10=The Bluebirds Are Singing
TTITLE11=Philadelphia Lawyer
TTITLE12=Leaning On The Everlasting Arms
EXTD=
EXTT0=
EXTT1=
EXTT2=
EXTT3=
EXTT4=
EXTT5=
EXTT6=
EXTT7=
EXTT8=
EXTT9=
EXTT10=
EXTT11=
EXTT12=
PLAYORDER=
